<?xml version="1.0" encoding="UTF-8" standalone="no"?>
<!DOCTYPE svg PUBLIC "-//W3C//DTD SVG 1.1//EN"
 "http://www.w3.org/Graphics/SVG/1.1/DTD/svg11.dtd">
<!-- Generated by graphviz version 2.47.0 (20210316.0004)
 -->
<!-- Pages: 1 -->
<svg width="294pt" height="44pt"
 viewBox="0.00 0.00 294.00 44.00" xmlns="http://www.w3.org/2000/svg" xmlns:xlink="http://www.w3.org/1999/xlink">
<g id="graph0" class="graph" transform="scale(1 1) rotate(0) translate(4 40)">
<polygon fill="white" stroke="transparent" points="-4,4 -4,-40 290,-40 290,4 -4,4"/>
<!-- S -->
<g id="node1" class="node">
<title>S</title>
<ellipse fill="none" stroke="black" cx="27" cy="-18" rx="27" ry="18"/>
<text text-anchor="middle" x="27" y="-14.3" font-family="Times New Roman,serif" font-size="14.00">S</text>
</g>
<!-- I -->
<g id="node2" class="node">
<title>I</title>
<ellipse fill="none" stroke="black" cx="151" cy="-18" rx="27" ry="18"/>
<text text-anchor="middle" x="151" y="-14.3" font-family="Times New Roman,serif" font-size="14.00">I</text>
</g>
<!-- S&#45;&gt;I -->
<g id="edge1" class="edge">
<title>S&#45;&gt;I</title>
<path fill="none" stroke="black" d="M54.17,-18C71.54,-18 94.57,-18 113.7,-18"/>
<polygon fill="black" stroke="black" points="113.87,-21.5 123.87,-18 113.87,-14.5 113.87,-21.5"/>
<text text-anchor="middle" x="89" y="-21.8" font-family="Times New Roman,serif" font-size="14.00">β*S*I</text>
</g>
<!-- R -->
<g id="node3" class="node">
<title>R</title>
<ellipse fill="none" stroke="black" cx="259" cy="-18" rx="27" ry="18"/>
<text text-anchor="middle" x="259" y="-14.3" font-family="Times New Roman,serif" font-size="14.00">R</text>
</g>
<!-- I&#45;&gt;R -->
<g id="edge2" class="edge">
<title>I&#45;&gt;R</title>
<path fill="none" stroke="black" d="M178.2,-18C191.33,-18 207.42,-18 221.71,-18"/>
<polygon fill="black" stroke="black" points="221.73,-21.5 231.73,-18 221.73,-14.5 221.73,-21.5"/>
<text text-anchor="middle" x="205" y="-21.8" font-family="Times New Roman,serif" font-size="14.00">γ*I</text>
</g>
</g>
</svg>