<?xml version="1.0" encoding="UTF-8" standalone="no"?>
<!DOCTYPE svg PUBLIC "-//W3C//DTD SVG 1.1//EN"
 "http://www.w3.org/Graphics/SVG/1.1/DTD/svg11.dtd">
<!-- Generated by graphviz version 2.43.0 (0)
 -->
<!-- Title: %3 Pages: 1 -->
<svg width="348pt" height="100pt"
 viewBox="0.00 0.00 348.00 99.50" xmlns="http://www.w3.org/2000/svg" xmlns:xlink="http://www.w3.org/1999/xlink">
<g id="graph0" class="graph" transform="scale(1 1) rotate(0) translate(4 95.5)">
<title>%3</title>
<polygon fill="white" stroke="transparent" points="-4,4 -4,-95.5 344,-95.5 344,4 -4,4"/>
<!-- S -->
<g id="node1" class="node">
<title>S</title>
<ellipse fill="none" stroke="black" cx="75" cy="-23.5" rx="27" ry="18"/>
<text text-anchor="middle" x="75" y="-19.8" font-family="Times,serif" font-size="14.00">S</text>
</g>
<!-- I -->
<g id="node2" class="node">
<title>I</title>
<ellipse fill="none" stroke="black" cx="202" cy="-51.5" rx="27" ry="18"/>
<text text-anchor="middle" x="202" y="-47.8" font-family="Times,serif" font-size="14.00">I</text>
</g>
<!-- S&#45;&gt;I -->
<g id="edge1" class="edge">
<title>S&#45;&gt;I</title>
<path fill="none" stroke="black" d="M100.7,-29.03C119.32,-33.2 145.12,-38.98 165.89,-43.64"/>
<polygon fill="black" stroke="black" points="165.4,-47.11 175.93,-45.88 166.93,-40.28 165.4,-47.11"/>
<text text-anchor="middle" x="138.5" y="-45.3" font-family="Times,serif" font-size="14.00">I*S*β</text>
</g>
<!-- S*&mu; -->
<g id="node5" class="node">
<title>S*&mu;</title>
<text text-anchor="middle" x="202" y="-3.8" font-family="Times,serif" font-size="14.00">S*μ</text>
</g>
<!-- S&#45;&gt;S*&mu; -->
<g id="edge4" class="edge">
<title>S&#45;&gt;S*&mu;</title>
<path fill="none" stroke="black" d="M101.6,-20.22C124.22,-17.33 156.9,-13.14 178.54,-10.38"/>
<polygon fill="black" stroke="black" points="179.25,-13.81 188.73,-9.07 178.36,-6.87 179.25,-13.81"/>
</g>
<!-- R -->
<g id="node3" class="node">
<title>R</title>
<ellipse fill="none" stroke="black" cx="313" cy="-73.5" rx="27" ry="18"/>
<text text-anchor="middle" x="313" y="-69.8" font-family="Times,serif" font-size="14.00">R</text>
</g>
<!-- I&#45;&gt;R -->
<g id="edge2" class="edge">
<title>I&#45;&gt;R</title>
<path fill="none" stroke="black" d="M228.01,-56.55C242.44,-59.46 260.83,-63.17 276.72,-66.38"/>
<polygon fill="black" stroke="black" points="276.24,-69.85 286.73,-68.4 277.62,-62.99 276.24,-69.85"/>
<text text-anchor="middle" x="257.5" y="-67.3" font-family="Times,serif" font-size="14.00">I*γ</text>
</g>
<!-- I*&mu; -->
<g id="node6" class="node">
<title>I*&mu;</title>
<text text-anchor="middle" x="313" y="-25.8" font-family="Times,serif" font-size="14.00">I*μ</text>
</g>
<!-- I&#45;&gt;I*&mu; -->
<g id="edge5" class="edge">
<title>I&#45;&gt;I*&mu;</title>
<path fill="none" stroke="black" d="M228.01,-46.45C247.37,-42.54 273.84,-37.2 291.85,-33.57"/>
<polygon fill="black" stroke="black" points="292.73,-36.96 301.84,-31.55 291.34,-30.1 292.73,-36.96"/>
</g>
<!-- B -->
<g id="node4" class="node">
<title>B</title>
<text text-anchor="middle" x="5.5" y="-19.8" font-family="Times,serif" font-size="14.00">B</text>
</g>
<!-- B&#45;&gt;S -->
<g id="edge3" class="edge">
<title>B&#45;&gt;S</title>
<path fill="none" stroke="black" d="M11.35,-23.5C17.13,-23.5 27.31,-23.5 37.81,-23.5"/>
<polygon fill="black" stroke="black" points="37.84,-27 47.84,-23.5 37.84,-20 37.84,-27"/>
</g>
</g>
</svg>