<?xml version="1.0" encoding="UTF-8" standalone="no"?>
<!DOCTYPE svg PUBLIC "-//W3C//DTD SVG 1.1//EN"
 "http://www.w3.org/Graphics/SVG/1.1/DTD/svg11.dtd">
<!-- Generated by graphviz version 2.43.0 (0)
 -->
<!-- Title: %3 Pages: 1 -->
<svg width="672pt" height="120pt"
 viewBox="0.00 0.00 672.00 120.00" xmlns="http://www.w3.org/2000/svg" xmlns:xlink="http://www.w3.org/1999/xlink">
<g id="graph0" class="graph" transform="scale(1 1) rotate(0) translate(4 116)">
<title>%3</title>
<polygon fill="white" stroke="transparent" points="-4,4 -4,-116 668,-116 668,4 -4,4"/>
<!-- S -->
<g id="node1" class="node">
<title>S</title>
<ellipse fill="none" stroke="black" cx="27" cy="-45" rx="27" ry="18"/>
<text text-anchor="middle" x="27" y="-41.3" font-family="Times,serif" font-size="14.00">S</text>
</g>
<!-- L -->
<g id="node2" class="node">
<title>L</title>
<ellipse fill="none" stroke="black" cx="284" cy="-45" rx="27" ry="18"/>
<text text-anchor="middle" x="284" y="-41.3" font-family="Times,serif" font-size="14.00">L</text>
</g>
<!-- S&#45;&gt;L -->
<g id="edge1" class="edge">
<title>S&#45;&gt;L</title>
<path fill="none" stroke="black" d="M54.33,-45C100.16,-45 194.68,-45 246.7,-45"/>
<polygon fill="black" stroke="black" points="246.81,-48.5 256.81,-45 246.81,-41.5 246.81,-48.5"/>
<text text-anchor="middle" x="155.5" y="-48.8" font-family="Times,serif" font-size="14.00">A*S*&amp;bη;*δ + I*S*&amp;bη;</text>
</g>
<!-- I -->
<g id="node3" class="node">
<title>I</title>
<ellipse fill="none" stroke="black" cx="465" cy="-72" rx="27" ry="18"/>
<text text-anchor="middle" x="465" y="-68.3" font-family="Times,serif" font-size="14.00">I</text>
</g>
<!-- L&#45;&gt;I -->
<g id="edge2" class="edge">
<title>L&#45;&gt;I</title>
<path fill="none" stroke="black" d="M310.65,-48.87C341.48,-53.52 393.43,-61.35 428.2,-66.6"/>
<polygon fill="black" stroke="black" points="427.99,-70.11 438.4,-68.14 429.04,-63.19 427.99,-70.11"/>
<text text-anchor="middle" x="374.5" y="-67.8" font-family="Times,serif" font-size="14.00">L*κ*p</text>
</g>
<!-- A -->
<g id="node4" class="node">
<title>A</title>
<ellipse fill="none" stroke="black" cx="465" cy="-18" rx="27" ry="18"/>
<text text-anchor="middle" x="465" y="-14.3" font-family="Times,serif" font-size="14.00">A</text>
</g>
<!-- L&#45;&gt;A -->
<g id="edge3" class="edge">
<title>L&#45;&gt;A</title>
<path fill="none" stroke="black" d="M309.05,-37.72C315.48,-35.97 322.47,-34.25 329,-33 362.13,-26.68 400.38,-22.74 427.68,-20.49"/>
<polygon fill="black" stroke="black" points="428.25,-23.96 437.94,-19.69 427.7,-16.98 428.25,-23.96"/>
<text text-anchor="middle" x="374.5" y="-36.8" font-family="Times,serif" font-size="14.00">&#45;L*κ*p + L*κ</text>
</g>
<!-- R -->
<g id="node5" class="node">
<title>R</title>
<ellipse fill="none" stroke="black" cx="637" cy="-29" rx="27" ry="18"/>
<text text-anchor="middle" x="637" y="-25.3" font-family="Times,serif" font-size="14.00">R</text>
</g>
<!-- I&#45;&gt;R -->
<g id="edge4" class="edge">
<title>I&#45;&gt;R</title>
<path fill="none" stroke="black" d="M489.64,-64.09C496.2,-62 503.35,-59.82 510,-58 540.45,-49.67 575.46,-41.74 600.84,-36.28"/>
<polygon fill="black" stroke="black" points="601.69,-39.68 610.75,-34.18 600.24,-32.83 601.69,-39.68"/>
<text text-anchor="middle" x="551" y="-61.8" font-family="Times,serif" font-size="14.00">I*α*f</text>
</g>
<!-- D -->
<g id="node6" class="node">
<title>D</title>
<ellipse fill="none" stroke="black" cx="637" cy="-94" rx="27" ry="18"/>
<text text-anchor="middle" x="637" y="-90.3" font-family="Times,serif" font-size="14.00">D</text>
</g>
<!-- I&#45;&gt;D -->
<g id="edge5" class="edge">
<title>I&#45;&gt;D</title>
<path fill="none" stroke="black" d="M491.82,-75.34C520.74,-79.08 567.79,-85.17 600.24,-89.37"/>
<polygon fill="black" stroke="black" points="599.85,-92.85 610.22,-90.66 600.75,-85.91 599.85,-92.85"/>
<text text-anchor="middle" x="551" y="-91.8" font-family="Times,serif" font-size="14.00">&#45;I*α*f + I*α</text>
</g>
<!-- A&#45;&gt;R -->
<g id="edge6" class="edge">
<title>A&#45;&gt;R</title>
<path fill="none" stroke="black" d="M492.16,-16.57C517.72,-15.56 557.67,-15.01 592,-19 595.09,-19.36 598.28,-19.85 601.47,-20.42"/>
<polygon fill="black" stroke="black" points="601,-23.89 611.49,-22.45 602.39,-17.03 601,-23.89"/>
<text text-anchor="middle" x="551" y="-22.8" font-family="Times,serif" font-size="14.00">A*η</text>
</g>
</g>
</svg>