<?xml version="1.0" encoding="UTF-8" standalone="no"?>
<!DOCTYPE svg PUBLIC "-//W3C//DTD SVG 1.1//EN"
 "http://www.w3.org/Graphics/SVG/1.1/DTD/svg11.dtd">
<!-- Generated by graphviz version 2.43.0 (0)
 -->
<!-- Title: %3 Pages: 1 -->
<svg width="413pt" height="84pt"
 viewBox="0.00 0.00 413.00 83.50" xmlns="http://www.w3.org/2000/svg" xmlns:xlink="http://www.w3.org/1999/xlink">
<g id="graph0" class="graph" transform="scale(1 1) rotate(0) translate(4 79.5)">
<title>%3</title>
<polygon fill="white" stroke="transparent" points="-4,4 -4,-79.5 409,-79.5 409,4 -4,4"/>
<!-- S -->
<g id="node1" class="node">
<title>S</title>
<ellipse fill="none" stroke="black" cx="86" cy="-19.5" rx="27" ry="18"/>
<text text-anchor="middle" x="86" y="-15.8" font-family="Times,serif" font-size="14.00">S</text>
</g>
<!-- I -->
<g id="node2" class="node">
<title>I</title>
<ellipse fill="none" stroke="black" cx="216" cy="-38.5" rx="27" ry="18"/>
<text text-anchor="middle" x="216" y="-34.8" font-family="Times,serif" font-size="14.00">I</text>
</g>
<!-- S&#45;&gt;I -->
<g id="edge1" class="edge">
<title>S&#45;&gt;I</title>
<path fill="none" stroke="black" d="M112.6,-23.3C131.78,-26.15 158.27,-30.08 179.5,-33.23"/>
<polygon fill="black" stroke="black" points="179.04,-36.7 189.45,-34.71 180.07,-29.78 179.04,-36.7"/>
<text text-anchor="middle" x="151" y="-35.3" font-family="Times,serif" font-size="14.00">βSI/N</text>
</g>
<!-- deadS -->
<g id="node5" class="node">
<title>deadS</title>
</g>
<!-- S&#45;&gt;deadS -->
<g id="edge4" class="edge">
<title>S&#45;&gt;deadS</title>
<path fill="none" stroke="black" d="M110.52,-11.53C117.08,-9.59 124.26,-7.72 131,-6.5 157.34,-1.73 188.97,-0.71 204.85,-0.52"/>
<polygon fill="black" stroke="black" points="204.87,-4.02 214.86,-0.5 204.86,2.98 204.87,-4.02"/>
<text text-anchor="middle" x="151" y="-10.3" font-family="Times,serif" font-size="14.00">μS</text>
</g>
<!-- R -->
<g id="node3" class="node">
<title>R</title>
<ellipse fill="none" stroke="black" cx="321" cy="-57.5" rx="27" ry="18"/>
<text text-anchor="middle" x="321" y="-53.8" font-family="Times,serif" font-size="14.00">R</text>
</g>
<!-- I&#45;&gt;R -->
<g id="edge2" class="edge">
<title>I&#45;&gt;R</title>
<path fill="none" stroke="black" d="M242.2,-43.15C254.92,-45.49 270.56,-48.38 284.48,-50.95"/>
<polygon fill="black" stroke="black" points="284.24,-54.46 294.71,-52.83 285.51,-47.58 284.24,-54.46"/>
<text text-anchor="middle" x="268.5" y="-52.3" font-family="Times,serif" font-size="14.00">γI</text>
</g>
<!-- deadI -->
<g id="node6" class="node">
<title>deadI</title>
</g>
<!-- I&#45;&gt;deadI -->
<g id="edge5" class="edge">
<title>I&#45;&gt;deadI</title>
<path fill="none" stroke="black" d="M241.56,-31.85C247.87,-30.29 254.66,-28.72 261,-27.5 277.91,-24.25 297.81,-21.84 309.63,-20.56"/>
<polygon fill="black" stroke="black" points="310.31,-24 319.9,-19.51 309.6,-17.04 310.31,-24"/>
<text text-anchor="middle" x="268.5" y="-31.3" font-family="Times,serif" font-size="14.00">μI</text>
</g>
<!-- deadR -->
<g id="node7" class="node">
<title>deadR</title>
</g>
<!-- R&#45;&gt;deadR -->
<g id="edge6" class="edge">
<title>R&#45;&gt;deadR</title>
<path fill="none" stroke="black" d="M348.4,-57.5C363.82,-57.5 382.41,-57.5 393.71,-57.5"/>
<polygon fill="black" stroke="black" points="393.91,-61 403.91,-57.5 393.91,-54 393.91,-61"/>
<text text-anchor="middle" x="376" y="-61.3" font-family="Times,serif" font-size="14.00">μR</text>
</g>
<!-- bornS -->
<g id="node4" class="node">
<title>bornS</title>
</g>
<!-- bornS&#45;&gt;S -->
<g id="edge3" class="edge">
<title>bornS&#45;&gt;S</title>
<path fill="none" stroke="black" d="M1.06,-19.5C2.42,-19.5 26.46,-19.5 48.46,-19.5"/>
<polygon fill="black" stroke="black" points="48.66,-23 58.66,-19.5 48.66,-16 48.66,-23"/>
<text text-anchor="middle" x="30" y="-23.3" font-family="Times,serif" font-size="14.00">μN</text>
</g>
</g>
</svg>