<?xml version="1.0" encoding="UTF-8" standalone="no"?>
<!DOCTYPE svg PUBLIC "-//W3C//DTD SVG 1.1//EN"
 "http://www.w3.org/Graphics/SVG/1.1/DTD/svg11.dtd">
<!-- Generated by graphviz version 2.43.0 (0)
 -->
<!-- Title: %3 Pages: 1 -->
<svg width="447pt" height="167pt"
 viewBox="0.00 0.00 447.00 166.50" xmlns="http://www.w3.org/2000/svg" xmlns:xlink="http://www.w3.org/1999/xlink">
<g id="graph0" class="graph" transform="scale(1 1) rotate(0) translate(4 162.5)">
<title>%3</title>
<polygon fill="white" stroke="transparent" points="-4,4 -4,-162.5 443,-162.5 443,4 -4,4"/>
<!-- S -->
<g id="node1" class="node">
<title>S</title>
<ellipse fill="none" stroke="black" cx="92" cy="-19.5" rx="27" ry="18"/>
<text text-anchor="middle" x="92" y="-15.8" font-family="Times,serif" font-size="14.00">S</text>
</g>
<!-- I -->
<g id="node2" class="node">
<title>I</title>
<ellipse fill="none" stroke="black" cx="236" cy="-38.5" rx="27" ry="18"/>
<text text-anchor="middle" x="236" y="-34.8" font-family="Times,serif" font-size="14.00">I</text>
</g>
<!-- S&#45;&gt;I -->
<g id="edge1" class="edge">
<title>S&#45;&gt;I</title>
<path fill="none" stroke="black" d="M118.72,-22.94C141.23,-25.95 174.18,-30.36 199.26,-33.72"/>
<polygon fill="black" stroke="black" points="199.1,-37.23 209.48,-35.08 200.03,-30.29 199.1,-37.23"/>
<text text-anchor="middle" x="164" y="-36.3" font-family="Times,serif" font-size="14.00">β*S*I/N</text>
</g>
<!-- deathS3 -->
<g id="node7" class="node">
<title>deathS3</title>
</g>
<!-- S&#45;&gt;deathS3 -->
<g id="edge5" class="edge">
<title>S&#45;&gt;deathS3</title>
<path fill="none" stroke="#ff7f00" d="M117.02,-12.04C123.45,-10.29 130.44,-8.62 137,-7.5 168.6,-2.12 206.62,-0.86 224.6,-0.58"/>
<polygon fill="#ff7f00" stroke="#ff7f00" points="224.87,-4.08 234.84,-0.5 224.81,2.92 224.87,-4.08"/>
<text text-anchor="middle" x="164" y="-11.3" font-family="Times,serif" font-size="14.00">μ*S</text>
</g>
<!-- R -->
<g id="node3" class="node">
<title>R</title>
<ellipse fill="none" stroke="black" cx="348" cy="-57.5" rx="27" ry="18"/>
<text text-anchor="middle" x="348" y="-53.8" font-family="Times,serif" font-size="14.00">R</text>
</g>
<!-- I&#45;&gt;R -->
<g id="edge2" class="edge">
<title>I&#45;&gt;R</title>
<path fill="none" stroke="black" d="M262.24,-42.86C276.81,-45.38 295.36,-48.58 311.4,-51.35"/>
<polygon fill="black" stroke="black" points="311.05,-54.84 321.5,-53.1 312.24,-47.94 311.05,-54.84"/>
<text text-anchor="middle" x="292" y="-54.3" font-family="Times,serif" font-size="14.00">γ*I</text>
</g>
<!-- deathI4 -->
<g id="node9" class="node">
<title>deathI4</title>
</g>
<!-- I&#45;&gt;deathI4 -->
<g id="edge7" class="edge">
<title>I&#45;&gt;deathI4</title>
<path fill="none" stroke="#4daf4a" d="M261.55,-31.79C267.85,-30.22 274.65,-28.67 281,-27.5 300.57,-23.88 323.72,-21.51 336.75,-20.34"/>
<polygon fill="#4daf4a" stroke="#4daf4a" points="337.21,-23.82 346.89,-19.51 336.64,-16.84 337.21,-23.82"/>
<text text-anchor="middle" x="292" y="-31.3" font-family="Times,serif" font-size="14.00">μ*I</text>
</g>
<!-- deathR5 -->
<g id="node11" class="node">
<title>deathR5</title>
</g>
<!-- R&#45;&gt;deathR5 -->
<g id="edge9" class="edge">
<title>R&#45;&gt;deathR5</title>
<path fill="none" stroke="#f781bf" d="M375.22,-57.5C392.71,-57.5 414.75,-57.5 427.52,-57.5"/>
<polygon fill="#f781bf" stroke="#f781bf" points="427.89,-61 437.89,-57.5 427.89,-54 427.89,-61"/>
<text text-anchor="middle" x="406.5" y="-61.3" font-family="Times,serif" font-size="14.00">μ*R</text>
</g>
<!-- N -->
<g id="node4" class="node">
<title>N</title>
<ellipse fill="none" stroke="black" cx="92" cy="-114.5" rx="27" ry="18"/>
<text text-anchor="middle" x="92" y="-110.8" font-family="Times,serif" font-size="14.00">N</text>
</g>
<!-- deathN3 -->
<g id="node8" class="node">
<title>deathN3</title>
</g>
<!-- N&#45;&gt;deathN3 -->
<g id="edge6" class="edge">
<title>N&#45;&gt;deathN3</title>
<path fill="none" stroke="#ff7f00" d="M115.65,-123.37C122.46,-125.86 129.98,-128.44 137,-130.5 168.61,-139.76 206.93,-147.33 224.85,-150.67"/>
<polygon fill="#ff7f00" stroke="#ff7f00" points="224.38,-154.14 234.84,-152.47 225.62,-147.25 224.38,-154.14"/>
<text text-anchor="middle" x="164" y="-147.3" font-family="Times,serif" font-size="14.00">μ*S</text>
</g>
<!-- deathN4 -->
<g id="node10" class="node">
<title>deathN4</title>
</g>
<!-- N&#45;&gt;deathN4 -->
<g id="edge8" class="edge">
<title>N&#45;&gt;deathN4</title>
<path fill="none" stroke="#4daf4a" d="M119.04,-114.5C150.73,-114.5 202.7,-114.5 224.68,-114.5"/>
<polygon fill="#4daf4a" stroke="#4daf4a" points="224.95,-118 234.95,-114.5 224.95,-111 224.95,-118"/>
<text text-anchor="middle" x="164" y="-118.3" font-family="Times,serif" font-size="14.00">μ*I</text>
</g>
<!-- deathN5 -->
<g id="node12" class="node">
<title>deathN5</title>
</g>
<!-- N&#45;&gt;deathN5 -->
<g id="edge10" class="edge">
<title>N&#45;&gt;deathN5</title>
<path fill="none" stroke="#f781bf" d="M114.58,-104.08C121.61,-100.98 129.53,-97.81 137,-95.5 168.28,-85.84 206.76,-80.09 224.78,-77.74"/>
<polygon fill="#f781bf" stroke="#f781bf" points="225.33,-81.2 234.84,-76.52 224.49,-74.25 225.33,-81.2"/>
<text text-anchor="middle" x="164" y="-99.3" font-family="Times,serif" font-size="14.00">μ*R</text>
</g>
<!-- birthS2 -->
<g id="node5" class="node">
<title>birthS2</title>
</g>
<!-- birthS2&#45;&gt;S -->
<g id="edge3" class="edge">
<title>birthS2&#45;&gt;S</title>
<path fill="none" stroke="#377eb8" d="M1.07,-19.5C2.58,-19.5 30.33,-19.5 54.6,-19.5"/>
<polygon fill="#377eb8" stroke="#377eb8" points="54.7,-23 64.7,-19.5 54.7,-16 54.7,-23"/>
<text text-anchor="middle" x="33" y="-23.3" font-family="Times,serif" font-size="14.00">μ*N</text>
</g>
<!-- birthN2 -->
<g id="node6" class="node">
<title>birthN2</title>
</g>
<!-- birthN2&#45;&gt;N -->
<g id="edge4" class="edge">
<title>birthN2&#45;&gt;N</title>
<path fill="none" stroke="#377eb8" d="M1.07,-114.5C2.58,-114.5 30.33,-114.5 54.6,-114.5"/>
<polygon fill="#377eb8" stroke="#377eb8" points="54.7,-118 64.7,-114.5 54.7,-111 54.7,-118"/>
<text text-anchor="middle" x="33" y="-118.3" font-family="Times,serif" font-size="14.00">μ*N</text>
</g>
</g>
</svg>