<?xml version="1.0" encoding="UTF-8" standalone="no"?>
<!DOCTYPE svg PUBLIC "-//W3C//DTD SVG 1.1//EN"
 "http://www.w3.org/Graphics/SVG/1.1/DTD/svg11.dtd">
<!-- Generated by graphviz version 2.43.0 (0)
 -->
<!-- Title: %3 Pages: 1 -->
<svg width="653pt" height="120pt"
 viewBox="0.00 0.00 653.00 120.00" xmlns="http://www.w3.org/2000/svg" xmlns:xlink="http://www.w3.org/1999/xlink">
<g id="graph0" class="graph" transform="scale(1 1) rotate(0) translate(4 116)">
<title>%3</title>
<polygon fill="white" stroke="transparent" points="-4,4 -4,-116 649,-116 649,4 -4,4"/>
<!-- S -->
<g id="node1" class="node">
<title>S</title>
<ellipse fill="none" stroke="black" cx="27" cy="-45" rx="27" ry="18"/>
<text text-anchor="middle" x="27" y="-41.3" font-family="Times,serif" font-size="14.00">S</text>
</g>
<!-- L -->
<g id="node2" class="node">
<title>L</title>
<ellipse fill="none" stroke="black" cx="265" cy="-45" rx="27" ry="18"/>
<text text-anchor="middle" x="265" y="-41.3" font-family="Times,serif" font-size="14.00">L</text>
</g>
<!-- S&#45;&gt;L -->
<g id="edge1" class="edge">
<title>S&#45;&gt;L</title>
<path fill="none" stroke="black" d="M54.16,-45C96.33,-45 179.47,-45 227.47,-45"/>
<polygon fill="black" stroke="black" points="227.73,-48.5 237.73,-45 227.72,-41.5 227.73,-48.5"/>
<text text-anchor="middle" x="146" y="-48.8" font-family="Times,serif" font-size="14.00">A*S*β*δ/N + I*S*β/N</text>
</g>
<!-- I -->
<g id="node3" class="node">
<title>I</title>
<ellipse fill="none" stroke="black" cx="446" cy="-72" rx="27" ry="18"/>
<text text-anchor="middle" x="446" y="-68.3" font-family="Times,serif" font-size="14.00">I</text>
</g>
<!-- L&#45;&gt;I -->
<g id="edge2" class="edge">
<title>L&#45;&gt;I</title>
<path fill="none" stroke="black" d="M291.65,-48.87C322.48,-53.52 374.43,-61.35 409.2,-66.6"/>
<polygon fill="black" stroke="black" points="408.99,-70.11 419.4,-68.14 410.04,-63.19 408.99,-70.11"/>
<text text-anchor="middle" x="355.5" y="-67.8" font-family="Times,serif" font-size="14.00">L*κ*p</text>
</g>
<!-- A -->
<g id="node4" class="node">
<title>A</title>
<ellipse fill="none" stroke="black" cx="446" cy="-18" rx="27" ry="18"/>
<text text-anchor="middle" x="446" y="-14.3" font-family="Times,serif" font-size="14.00">A</text>
</g>
<!-- L&#45;&gt;A -->
<g id="edge3" class="edge">
<title>L&#45;&gt;A</title>
<path fill="none" stroke="black" d="M290.05,-37.72C296.48,-35.97 303.47,-34.25 310,-33 343.13,-26.68 381.38,-22.74 408.68,-20.49"/>
<polygon fill="black" stroke="black" points="409.25,-23.96 418.94,-19.69 408.7,-16.98 409.25,-23.96"/>
<text text-anchor="middle" x="355.5" y="-36.8" font-family="Times,serif" font-size="14.00">&#45;L*κ*p + L*κ</text>
</g>
<!-- R -->
<g id="node5" class="node">
<title>R</title>
<ellipse fill="none" stroke="black" cx="618" cy="-29" rx="27" ry="18"/>
<text text-anchor="middle" x="618" y="-25.3" font-family="Times,serif" font-size="14.00">R</text>
</g>
<!-- I&#45;&gt;R -->
<g id="edge4" class="edge">
<title>I&#45;&gt;R</title>
<path fill="none" stroke="black" d="M470.64,-64.09C477.2,-62 484.35,-59.82 491,-58 521.45,-49.67 556.46,-41.74 581.84,-36.28"/>
<polygon fill="black" stroke="black" points="582.69,-39.68 591.75,-34.18 581.24,-32.83 582.69,-39.68"/>
<text text-anchor="middle" x="532" y="-61.8" font-family="Times,serif" font-size="14.00">I*α*f</text>
</g>
<!-- D -->
<g id="node6" class="node">
<title>D</title>
<ellipse fill="none" stroke="black" cx="618" cy="-94" rx="27" ry="18"/>
<text text-anchor="middle" x="618" y="-90.3" font-family="Times,serif" font-size="14.00">D</text>
</g>
<!-- I&#45;&gt;D -->
<g id="edge5" class="edge">
<title>I&#45;&gt;D</title>
<path fill="none" stroke="black" d="M472.82,-75.34C501.74,-79.08 548.79,-85.17 581.24,-89.37"/>
<polygon fill="black" stroke="black" points="580.85,-92.85 591.22,-90.66 581.75,-85.91 580.85,-92.85"/>
<text text-anchor="middle" x="532" y="-91.8" font-family="Times,serif" font-size="14.00">&#45;I*α*f + I*α</text>
</g>
<!-- A&#45;&gt;R -->
<g id="edge6" class="edge">
<title>A&#45;&gt;R</title>
<path fill="none" stroke="black" d="M473.16,-16.57C498.72,-15.56 538.67,-15.01 573,-19 576.09,-19.36 579.28,-19.85 582.47,-20.42"/>
<polygon fill="black" stroke="black" points="582,-23.89 592.49,-22.45 583.39,-17.03 582,-23.89"/>
<text text-anchor="middle" x="532" y="-22.8" font-family="Times,serif" font-size="14.00">A*ε</text>
</g>
</g>
</svg>