<?xml version="1.0" encoding="UTF-8" standalone="no"?>
<!DOCTYPE svg PUBLIC "-//W3C//DTD SVG 1.1//EN"
 "http://www.w3.org/Graphics/SVG/1.1/DTD/svg11.dtd">
<!-- Generated by graphviz version 2.43.0 (0)
 -->
<!-- Title: %3 Pages: 1 -->
<svg width="624pt" height="119pt"
 viewBox="0.00 0.00 624.00 118.50" xmlns="http://www.w3.org/2000/svg" xmlns:xlink="http://www.w3.org/1999/xlink">
<g id="graph0" class="graph" transform="scale(1 1) rotate(0) translate(4 114.5)">
<title>%3</title>
<polygon fill="white" stroke="transparent" points="-4,4 -4,-114.5 620,-114.5 620,4 -4,4"/>
<!-- S -->
<g id="node1" class="node">
<title>S</title>
<ellipse fill="none" stroke="black" cx="27" cy="-65.5" rx="27" ry="18"/>
<text text-anchor="middle" x="27" y="-61.8" font-family="Times,serif" font-size="14.00">S</text>
</g>
<!-- L -->
<g id="node2" class="node">
<title>L</title>
<ellipse fill="none" stroke="black" cx="284" cy="-65.5" rx="27" ry="18"/>
<text text-anchor="middle" x="284" y="-61.8" font-family="Times,serif" font-size="14.00">L</text>
</g>
<!-- S&#45;&gt;L -->
<g id="edge1" class="edge">
<title>S&#45;&gt;L</title>
<path fill="none" stroke="black" d="M54.33,-65.5C100.16,-65.5 194.68,-65.5 246.7,-65.5"/>
<polygon fill="black" stroke="black" points="246.81,-69 256.81,-65.5 246.81,-62 246.81,-69"/>
<text text-anchor="middle" x="155.5" y="-69.3" font-family="Times,serif" font-size="14.00">A*S*&amp;bη;*δ + I*S*&amp;bη;</text>
</g>
<!-- I -->
<g id="node3" class="node">
<title>I</title>
<ellipse fill="none" stroke="black" cx="465" cy="-92.5" rx="27" ry="18"/>
<text text-anchor="middle" x="465" y="-88.8" font-family="Times,serif" font-size="14.00">I</text>
</g>
<!-- L&#45;&gt;I -->
<g id="edge2" class="edge">
<title>L&#45;&gt;I</title>
<path fill="none" stroke="black" d="M310.65,-69.37C341.48,-74.02 393.43,-81.85 428.2,-87.1"/>
<polygon fill="black" stroke="black" points="427.99,-90.61 438.4,-88.64 429.04,-83.69 427.99,-90.61"/>
<text text-anchor="middle" x="374.5" y="-88.3" font-family="Times,serif" font-size="14.00">L*κ*p</text>
</g>
<!-- A -->
<g id="node4" class="node">
<title>A</title>
<ellipse fill="none" stroke="black" cx="465" cy="-38.5" rx="27" ry="18"/>
<text text-anchor="middle" x="465" y="-34.8" font-family="Times,serif" font-size="14.00">A</text>
</g>
<!-- L&#45;&gt;A -->
<g id="edge3" class="edge">
<title>L&#45;&gt;A</title>
<path fill="none" stroke="black" d="M309.05,-58.22C315.48,-56.47 322.47,-54.75 329,-53.5 362.13,-47.18 400.38,-43.24 427.68,-40.99"/>
<polygon fill="black" stroke="black" points="428.25,-44.46 437.94,-40.19 427.7,-37.48 428.25,-44.46"/>
<text text-anchor="middle" x="374.5" y="-57.3" font-family="Times,serif" font-size="14.00">&#45;L*κ*p + L*κ</text>
</g>
<!-- deathI4 -->
<g id="node6" class="node">
<title>deathI4</title>
</g>
<!-- I&#45;&gt;deathI4 -->
<g id="edge5" class="edge">
<title>I&#45;&gt;deathI4</title>
<path fill="none" stroke="black" d="M492.17,-92.5C518.91,-92.5 559.08,-92.5 577.77,-92.5"/>
<polygon fill="black" stroke="black" points="577.96,-96 587.96,-92.5 577.96,-89 577.96,-96"/>
<text text-anchor="middle" x="527" y="-96.3" font-family="Times,serif" font-size="14.00">I*α</text>
</g>
<!-- R -->
<g id="node5" class="node">
<title>R</title>
<ellipse fill="none" stroke="black" cx="589" cy="-19.5" rx="27" ry="18"/>
<text text-anchor="middle" x="589" y="-15.8" font-family="Times,serif" font-size="14.00">R</text>
</g>
<!-- A&#45;&gt;R -->
<g id="edge4" class="edge">
<title>A&#45;&gt;R</title>
<path fill="none" stroke="black" d="M491.58,-34.52C509.22,-31.77 532.93,-28.08 552.42,-25.04"/>
<polygon fill="black" stroke="black" points="553.12,-28.48 562.46,-23.48 552.04,-21.56 553.12,-28.48"/>
<text text-anchor="middle" x="527" y="-35.3" font-family="Times,serif" font-size="14.00">A*η</text>
</g>
<!-- birthR5 -->
<g id="node7" class="node">
<title>birthR5</title>
</g>
<!-- birthR5&#45;&gt;R -->
<g id="edge6" class="edge">
<title>birthR5&#45;&gt;R</title>
<path fill="none" stroke="black" d="M466.13,-0.51C468.72,-0.63 510.75,-2.67 544,-8.5 547.26,-9.07 550.63,-9.75 553.99,-10.49"/>
<polygon fill="black" stroke="black" points="553.39,-13.94 563.93,-12.82 554.99,-7.13 553.39,-13.94"/>
<text text-anchor="middle" x="527" y="-12.3" font-family="Times,serif" font-size="14.00">I*α*f</text>
</g>
</g>
</svg>